<svg width="85" height="40" viewBox="0 0 85 40" fill="none" xmlns="http://www.w3.org/2000/svg">
<path d="M5.15397 4.07337V7.39522H17.5653V11.4686H5.15397V19.0995H0V0H18.2457V4.07337H5.15397Z" fill="white"/>
<path d="M24.9116 10.9216C24.9116 11.7176 24.9872 12.3713 25.1339 12.8827C25.2807 13.3808 25.5253 13.781 25.8543 14.0789C26.1879 14.3769 26.6192 14.577 27.1484 14.6926C27.6865 14.8038 28.3446 14.8616 29.1228 14.8616H38.906V19.0995H28.0645C26.5614 19.0995 25.2851 18.9794 24.2268 18.7393C23.1817 18.4903 22.3235 18.1078 21.6565 17.6009C20.9894 17.0806 20.5047 16.4269 20.1979 15.6398C19.8999 14.8527 19.7532 13.9144 19.7532 12.8338V0H24.9071V10.9216H24.9116Z" fill="white"/>
<path d="M40.418 19.0951V0H59.7487V4.07337H45.7142V7.22624H59.0283V11.2996H45.7142V15.0261H59.9444V19.0995H40.418V19.0951Z" fill="white"/>
<path d="M75.417 9.31149L84.0467 19.1217H78.1567L72.4657 12.6781L66.8001 19.1217H60.9227L69.5355 9.31149L61.3546 0H67.2447L72.4699 5.98501L77.7248 0H83.6148L75.4255 9.31149H75.417Z" fill="white"/>
<path d="M18.2724 39.9956V32.0311H5.15397V39.9956H0V20.9005H5.15397V27.8466H18.2724V20.9005H23.4263V39.9956H18.2724Z" fill="white"/>
<path d="M24.9427 39.9956V20.9005H44.2735V24.9739H30.239V28.1267H43.5531V32.2001H30.239V35.9266H44.4692V40H24.9427V39.9956Z" fill="white"/>
<path d="M51.1352 39.9956H45.9812V20.9005H58.9039C60.2914 20.9005 61.4698 21.0428 62.4348 21.3319C63.4087 21.6209 64.1958 22.0256 64.7961 22.5548C65.4098 23.0839 65.8456 23.7199 66.1168 24.4714C66.3925 25.214 66.5348 26.0411 66.5348 26.9572C66.5348 27.7621 66.4192 28.4692 66.188 29.0695C65.9656 29.6698 65.6588 30.1901 65.2719 30.6259C64.8939 31.0528 64.4492 31.413 63.9378 31.711C63.4265 32.0089 62.8928 32.2535 62.3281 32.4492L68.5804 39.9956H62.5504L56.7694 32.965H51.1396V39.9956H51.1352ZM61.3231 26.9305C61.3231 26.5614 61.2741 26.2457 61.1719 25.9878C61.0785 25.7299 60.9139 25.5209 60.6738 25.3608C60.4337 25.1918 60.1091 25.0717 59.6999 25.0006C59.2997 24.925 58.8017 24.8894 58.1969 24.8894H51.1352V28.9761H58.1969C58.7972 28.9761 59.2997 28.9405 59.6999 28.8649C60.1091 28.7893 60.4337 28.6737 60.6738 28.5181C60.9139 28.3491 61.0829 28.1401 61.1719 27.8777C61.2741 27.6198 61.3231 27.3041 61.3231 26.935V26.9305Z" fill="white"/>
</svg>
